<svg width="100" height="100" viewBox="0 0 100 100" fill="none" xmlns="http://www.w3.org/2000/svg">


    <g id="linkedIn">
        <rect width="32" height="32" rx="3" fill="white"/>
        <path d="M6.33333 2.5C4.76853 2.5 3.5 3.76853 3.5 5.33333C3.5 6.89814 4.76853 8.16667 6.33333 8.16667C7.89814 8.16667 9.16667 6.89814 9.16667 5.33333C9.16667 3.76853 7.89814 2.5 6.33333 2.5Z"
              fill="black"/>
        <path d="M3.66667 10.5C3.57462 10.5 3.5 10.5746 3.5 10.6667V28C3.5 28.092 3.57462 28.1667 3.66667 28.1667H9C9.09205 28.1667 9.16667 28.092 9.16667 28V10.6667C9.16667 10.5746 9.09205 10.5 9 10.5H3.66667Z"
              fill="black"/>
        <path d="M12.3333 10.5C12.2413 10.5 12.1667 10.5746 12.1667 10.6667V28C12.1667 28.092 12.2413 28.1667 12.3333 28.1667H17.6667C17.7587 28.1667 17.8333 28.092 17.8333 28V18.6667C17.8333 18.0036 18.0967 17.3677 18.5656 16.8989C19.0344 16.4301 19.6703 16.1667 20.3333 16.1667C20.9964 16.1667 21.6323 16.4301 22.1011 16.8989C22.5699 17.3677 22.8333 18.0036 22.8333 18.6667V28C22.8333 28.092 22.908 28.1667 23 28.1667H28.3333C28.4254 28.1667 28.5 28.092 28.5 28V16.507C28.5 13.2713 25.6859 10.74 22.4665 11.0327C21.4736 11.1229 20.4919 11.3697 19.5753 11.7626L17.8333 12.5091V10.6667C17.8333 10.5746 17.7587 10.5 17.6667 10.5H12.3333Z"
              fill="black"/>

    </g>

    <g id="telegram">
        <path d="M32.1586 0.340967L1.1503 12.5808C-0.0975299 13.1508 -0.519581 14.2923 0.8487 14.9118L8.80368 17.4995L28.0378 5.33177C29.088 4.5679 30.1632 4.77159 29.238 5.6119L12.7185 20.9224L12.1996 27.4017C12.6802 28.4021 13.5603 28.4068 14.1216 27.9095L18.692 23.4829L26.5195 29.4827C28.3375 30.5844 29.3267 29.8734 29.7179 27.8541L34.852 2.96937C35.3851 0.483814 34.476 -0.611346 32.1586 0.340967Z"
              fill="white"/>
    </g>

    <g id="git">
        <path fill-rule="evenodd" clip-rule="evenodd"
              d="M16.0001 1C7.52841 1 0.666748 7.86167 0.666748 16.3333C0.666748 23.1183 5.05591 28.8492 11.1509 30.8808C11.9176 31.015 12.2051 30.555 12.2051 30.1525C12.2051 29.7883 12.1859 28.5808 12.1859 27.2967C8.33342 28.0058 7.33675 26.3575 7.03008 25.495C6.85758 25.0542 6.11008 23.6933 5.45842 23.3292C4.92175 23.0417 4.15508 22.3325 5.43925 22.3133C6.64675 22.2942 7.50925 23.425 7.79675 23.885C9.17675 26.2042 11.3809 25.5525 12.2626 25.15C12.3967 24.1533 12.7992 23.4825 13.2401 23.0992C9.82842 22.7158 6.26342 21.3933 6.26342 15.5283C6.26342 13.8608 6.85758 12.4808 7.83508 11.4075C7.68175 11.0242 7.14508 9.4525 7.98841 7.34417C7.98841 7.34417 9.27258 6.94167 12.2051 8.91583C13.4317 8.57083 14.7351 8.39833 16.0384 8.39833C17.3417 8.39833 18.6451 8.57083 19.8717 8.91583C22.8042 6.9225 24.0884 7.34417 24.0884 7.34417C24.9317 9.4525 24.3951 11.0242 24.2417 11.4075C25.2192 12.4808 25.8134 13.8417 25.8134 15.5283C25.8134 21.4125 22.2292 22.7158 18.8176 23.0992C19.3734 23.5783 19.8526 24.4983 19.8526 25.9358C19.8526 27.9867 19.8334 29.635 19.8334 30.1525C19.8334 30.555 20.1209 31.0342 20.8876 30.8808C26.9443 28.8492 31.3334 23.0992 31.3334 16.3333C31.3334 7.86167 24.4717 1 16.0001 1Z"
              fill="white"/>
    </g>

    <g clip-path="url(#clip0_4533_1212)" id="figma">
        <path d="M76.5625 0H23.4375C10.4933 0 0 10.4933 0 23.4375V76.5625C0 89.5067 10.4933 100 23.4375 100H76.5625C89.5067 100 100 89.5067 100 76.5625V23.4375C100 10.4933 89.5067 0 76.5625 0Z"
              fill="#F4F2ED"/>
        <mask id="mask0_4533_1212" style="mask-type:luminance" maskUnits="userSpaceOnUse" x="23" y="10" width="53"
              height="80">
            <path d="M23.8281 10.9375H75.9219V89.0625H23.8281V10.9375Z" fill="white"/>
        </mask>
        <g mask="url(#mask0_4533_1212)">
            <path d="M36.8543 89.0625C44.0418 89.0625 49.875 83.2293 49.875 76.0418V63.0207H36.8543C29.6668 63.0207 23.8333 68.8543 23.8333 76.0418C23.8333 83.2293 29.6668 89.0625 36.8543 89.0625Z"
                  fill="#0ACF83"/>
            <path d="M23.8333 50C23.8333 42.8125 29.6668 36.9793 36.8543 36.9793H49.875V63.0207H36.8543C29.6668 63.0207 23.8333 57.1875 23.8333 50Z"
                  fill="#A259FF"/>
            <path d="M23.8333 23.9582C23.8333 16.7707 29.6668 10.9375 36.8543 10.9375H49.875V36.9793H36.8543C29.6668 36.9793 23.8333 31.1457 23.8333 23.9582Z"
                  fill="#F24E1E"/>
            <path d="M49.875 10.9375H62.8957C70.0832 10.9375 75.9168 16.7707 75.9168 23.9582C75.9168 31.1457 70.0832 36.9793 62.8957 36.9793H49.875V10.9375Z"
                  fill="#FF7262"/>
            <path d="M75.9168 50C75.9168 57.1875 70.0832 63.0207 62.8957 63.0207C55.7082 63.0207 49.875 57.1875 49.875 50C49.875 42.8125 55.7082 36.9793 62.8957 36.9793C70.0832 36.9793 75.9168 42.8125 75.9168 50Z"
                  fill="#1ABCFE"/>
        </g>
    </g>

    <g id="gitRed">


        <path d="M76.5625 0H23.4375C10.4933 0 0 10.4933 0 23.4375V76.5625C0 89.5067 10.4933 100 23.4375 100H76.5625C89.5067 100 100 89.5067 100 76.5625V23.4375C100 10.4933 89.5067 0 76.5625 0Z"
              fill="#F03C2E"/>
        <mask id="mask0_4533_1197" style="mask-type:luminance" maskUnits="userSpaceOnUse" x="10" y="10"
              width="80" height="80">
            <path d="M10.9375 10.9375H89.0625V89.0625H10.9375V10.9375Z" fill="white"/>
        </mask>
        <g mask="url(#mask0_4533_1197)">
            <path d="M87.5875 46.5211L53.4786 12.4121C52.7753 11.7081 51.8789 11.2286 50.903 11.0343C49.927 10.8401 48.9153 10.9399 47.9961 11.3211C47.3858 11.5741 46.8314 11.9448 46.3645 12.4121L39.2844 19.4922L48.2688 28.4766C50.3586 27.7442 52.7512 28.2446 54.416 29.9098C55.2086 30.7038 55.7619 31.7048 56.0127 32.7982C56.2635 33.8917 56.2017 35.0337 55.8344 36.0938L64.4942 44.7535C66.5891 44.0309 69.0059 44.4969 70.6782 46.1743C71.5158 47.0116 72.0862 48.0786 72.3171 49.2403C72.5481 50.4019 72.4291 51.606 71.9754 52.7C71.3671 54.1668 70.2013 55.332 68.7342 55.9395C67.267 56.5469 65.6187 56.5469 64.1516 55.9395C63.425 55.6383 62.7649 55.1973 62.209 54.641C60.4512 52.8832 60.0168 50.2953 60.9055 48.1297L52.8293 40.0536V61.3063C53.4156 61.5963 53.9513 61.9788 54.416 62.4391C55.5388 63.5619 56.1696 65.0847 56.1696 66.6725C56.1696 68.2603 55.5388 69.7831 54.416 70.9059C53.2933 72.0287 51.7705 72.6594 50.1827 72.6594C48.5948 72.6594 47.072 72.0287 45.9493 70.9059C45.1112 70.069 44.5405 69.0022 44.3092 67.8406C44.0779 66.6791 44.1965 65.475 44.65 64.3809C44.9511 63.6544 45.3926 62.9946 45.9493 62.4391C46.5278 61.8629 47.17 61.4258 47.9098 61.1328V39.6825C47.1757 39.3823 46.5091 38.9383 45.9493 38.3766C45.1087 37.5369 44.5372 36.4659 44.3076 35.3001C44.078 34.1343 44.2008 32.9266 44.6602 31.8309L35.7981 22.9739L12.4094 46.3379C11.7053 47.0415 11.2257 47.9382 11.0314 48.9145C10.8371 49.8907 10.9367 50.9027 11.3176 51.8223C11.5708 52.4329 11.9418 52.9876 12.4094 53.4547L46.5207 87.561C46.9877 88.0282 47.5422 88.3989 48.1524 88.652C49.3853 89.1623 50.7703 89.1623 52.0032 88.652C52.6134 88.3989 53.1678 88.0282 53.6348 87.561L87.5875 53.6621C88.055 53.195 88.4259 52.6403 88.679 52.0298C88.932 51.4192 89.0624 50.7648 89.0625 50.1039C89.0626 49.443 88.9323 48.7884 88.6792 48.1778C88.4261 47.5672 88.0552 47.0125 87.5875 46.5453"
                  fill="white"/>
        </g>
    </g>
    <defs>
        <clipPath id="clip0_4533_1197">
            <rect width="100" height="100" fill="white"/>
        </clipPath>
    </defs>


    <g id="logo">
        <svg width="49" height="48" viewBox="0 0 49 48" fill="none" xmlns="http://www.w3.org/2000/svg">
            <path d="M48 23.79C48 29.2269 46.1148 34.4955 42.6657 38.6983C39.2166 42.901 34.417 45.7778 29.0846 46.8385C23.7522 47.8992 18.2171 47.0781 13.4222 44.5152C8.6273 41.9523 4.86942 37.8061 2.78883 32.7831C0.708239 27.7601 0.433668 22.1711 2.0119 16.9684C3.59013 11.7656 6.92352 7.27106 11.4441 4.2505C15.9647 1.22995 21.3927 -0.129706 26.8034 0.403198C32.2141 0.936101 37.2726 3.3286 41.117 7.17303L38.5485 9.74152C35.2983 6.49133 31.0217 4.46864 26.4474 4.01811C21.873 3.56757 17.284 4.71707 13.4622 7.27074C9.64032 9.8244 6.82218 13.6242 5.48789 18.0228C4.15361 22.4213 4.38574 27.1465 6.14473 31.393C7.90373 35.6396 11.0808 39.1449 15.1345 41.3117C19.1882 43.4785 23.8678 44.1726 28.376 43.2759C32.8841 42.3792 36.9419 39.947 39.8579 36.3939C42.7738 32.8408 44.3676 28.3865 44.3676 23.79H48Z"
                  fill="white"/>
            <path d="M16.0159 39.0958C12.4748 37.1329 9.72382 34.003 8.23174 30.2392C6.73967 26.4755 6.59878 22.3108 7.83309 18.4548C9.0674 14.5988 11.6005 11.2901 15.0009 9.09244C18.4012 6.89477 22.4584 5.9441 26.4811 6.40243C30.5038 6.86076 34.2431 8.69972 37.0619 11.606C39.8807 14.5122 41.6047 18.306 41.9399 22.3408C42.2752 26.3756 41.2011 30.4018 38.9006 33.7335C36.6001 37.0651 33.2156 39.496 29.3237 40.612L28.5781 38.0118C31.8684 37.0683 34.7298 35.0132 36.6747 32.1965C38.6196 29.3798 39.5277 25.9759 39.2442 22.5648C38.9608 19.1536 37.5033 15.9463 35.1202 13.4893C32.7371 11.0322 29.5758 9.4775 26.1749 9.09002C22.774 8.70254 19.3439 9.50626 16.4692 11.3642C13.5944 13.2222 11.4528 16.0195 10.4093 19.2795C9.36578 22.5394 9.48489 26.0604 10.7463 29.2424C12.0078 32.4243 14.3335 35.0705 17.3273 36.73L16.0159 39.0958Z"
                  fill="white"/>
            <path d="M24.5 11.29C27.3919 11.29 30.1944 12.2928 32.4299 14.1274C34.6654 15.962 36.1956 18.515 36.7598 21.3514C37.324 24.1878 36.8873 27.132 35.524 29.6825C34.1608 32.233 31.9554 34.2318 29.2835 35.3385C26.6117 36.4452 23.6389 36.5913 20.8714 35.7518C18.104 34.9123 15.7133 33.1392 14.1066 30.7347C12.5 28.3301 11.7767 25.4428 12.0602 22.5648C12.3437 19.6868 13.6163 16.9961 15.6612 14.9512L17.0274 16.3174C15.2986 18.0463 14.2227 20.321 13.983 22.7542C13.7434 25.1874 14.3548 27.6283 15.7131 29.6612C17.0715 31.6941 19.0927 33.1931 21.4323 33.9029C23.772 34.6126 26.2853 34.4891 28.5442 33.5535C30.803 32.6178 32.6675 30.9279 33.82 28.7717C34.9726 26.6155 35.3418 24.1263 34.8648 21.7283C34.3878 19.3304 33.0941 17.172 31.2042 15.621C29.3142 14.0699 26.9449 13.2222 24.5 13.2222L24.5 11.29Z"
                  fill="white"/>
            <path d="M17.0301 19.7343C17.9685 18.0061 19.477 16.6567 21.2987 15.916C23.1205 15.1754 25.1426 15.0893 27.0207 15.6725C28.8988 16.2556 30.5165 17.4719 31.5983 19.1141C32.6802 20.7563 33.1591 22.7229 32.9535 24.6786C32.748 26.6344 31.8706 28.4583 30.471 29.8397C29.0714 31.2211 27.2361 32.0745 25.2779 32.2545C23.3196 32.4344 21.3595 31.9298 19.7316 30.8266C18.1037 29.7233 16.9086 28.0898 16.3501 26.2043L17.7273 25.7963C18.1915 27.3632 19.1846 28.7207 20.5374 29.6375C21.8902 30.5543 23.5191 30.9737 25.1464 30.8241C26.7738 30.6746 28.2989 29.9654 29.462 28.8175C30.6251 27.6695 31.3542 26.1537 31.525 24.5285C31.6959 22.9032 31.2979 21.269 30.3989 19.9043C29.4999 18.5396 28.1555 17.5288 26.5948 17.0442C25.034 16.5596 23.3536 16.6311 21.8397 17.2466C20.3258 17.8621 19.0722 18.9835 18.2924 20.4196L17.0301 19.7343Z"
                  fill="white"/>
            <path d="M28.2197 26.3227C27.6337 27.1833 26.7675 27.8141 25.7687 28.1076C24.7698 28.4011 23.7001 28.3392 22.7417 27.9324C21.7834 27.5256 20.9958 26.7991 20.513 25.8767C20.0303 24.9543 19.8823 23.893 20.0943 22.8737C20.3063 21.8544 20.8652 20.9402 21.6757 20.2868C22.4862 19.6334 23.4982 19.2812 24.5393 19.2903C25.5803 19.2994 26.586 19.6692 27.385 20.3366C28.184 21.0041 28.7269 21.9279 28.921 22.9508L28.0934 23.1079C27.9356 22.2765 27.4944 21.5256 26.845 20.9831C26.1955 20.4406 25.3781 20.14 24.5319 20.1326C23.6858 20.1253 22.8632 20.4115 22.2044 20.9426C21.5456 21.4737 21.0914 22.2168 20.9191 23.0453C20.7467 23.8737 20.867 24.7363 21.2594 25.4861C21.6517 26.2358 22.2919 26.8263 23.0709 27.157C23.8498 27.4876 24.7193 27.5379 25.5312 27.2994C26.3431 27.0608 27.0471 26.5481 27.5234 25.8486L28.2197 26.3227Z"
                  fill="white"/>
            <path d="M23.7068 21.4192C24.2553 21.2357 24.8504 21.248 25.3909 21.4541C25.9313 21.6602 26.3835 22.0473 26.6705 22.5495C26.9575 23.0516 27.0615 23.6378 26.9648 24.208C26.8681 24.7783 26.5767 25.2973 26.1402 25.6768C25.7037 26.0563 25.1491 26.2726 24.5709 26.289C23.9928 26.3054 23.4268 26.1209 22.9695 25.7668C22.5122 25.4127 22.1918 24.9109 22.0629 24.3471C21.934 23.7832 22.0046 23.1922 22.2627 22.6745L23.1394 23.1117C22.9825 23.4264 22.9395 23.7859 23.0179 24.1288C23.0963 24.4717 23.2911 24.7768 23.5693 24.9921C23.8474 25.2075 24.1916 25.3197 24.5431 25.3098C24.8947 25.2998 25.232 25.1682 25.4975 24.9374C25.7629 24.7067 25.9402 24.391 25.999 24.0442C26.0578 23.6974 25.9945 23.341 25.82 23.0356C25.6454 22.7302 25.3704 22.4948 25.0418 22.3695C24.7131 22.2442 24.3512 22.2367 24.0176 22.3483L23.7068 21.4192Z"
                  fill="white"/>
            <circle cx="24.5" cy="23.79" r="0.5" transform="rotate(-180 24.5 23.79)" fill="white"/>
        </svg>


    </g>

    <g id="react">

        <path d="M92.9055 32.7027C91.703 32.2886 90.4903 31.905 89.2686 31.5522C89.4738 30.7106 89.6627 29.8791 89.8304 29.0622C92.5837 15.6483 90.7838 4.84172 84.6359 1.28369C78.7415 -2.12728 69.1015 1.42943 59.3658 9.93336C58.4063 10.773 57.4681 11.6368 56.552 12.5239C55.9388 11.934 55.3148 11.3555 54.6802 10.7888C44.4766 1.6961 34.2492 -2.13614 28.108 1.43209C22.2188 4.85368 20.4749 15.0126 22.9537 27.7253C23.2003 28.9844 23.4787 30.2369 23.7887 31.4818C22.341 31.8947 20.9441 32.3341 19.6072 32.8019C7.64431 36.9881 0.00463867 43.5482 0.00463867 50.3528C0.00463867 57.3808 8.20617 64.4299 20.666 68.7043C21.6762 69.0494 22.6947 69.3692 23.7208 69.6633C23.3875 71.0041 23.0917 72.354 22.8336 73.7113C20.4705 86.2034 22.3159 96.1222 28.1892 99.5221C34.2554 103.033 44.4369 99.4247 54.3505 90.7267C55.1544 90.0196 55.9406 89.2924 56.7083 88.5459C57.7003 89.5065 58.7188 90.4392 59.7626 91.3429C69.3659 99.6364 78.85 102.985 84.7176 99.5762C90.7781 96.0549 92.7479 85.3994 90.1906 72.4355C89.9891 71.4199 89.7632 70.4093 89.5131 69.4046C90.2281 69.192 90.9299 68.9732 91.614 68.7455C104.567 64.4384 112.995 57.4747 112.995 50.3528C112.995 43.5234 105.109 36.919 92.9055 32.7027ZM90.0961 64.1473C89.4782 64.3524 88.8444 64.5504 88.1982 64.7431C86.7682 60.1995 84.8385 55.3683 82.4768 50.3763C84.7304 45.5035 86.5859 40.7339 87.9758 36.2199C89.1317 36.5557 90.2533 36.9097 91.3346 37.2831C101.791 40.8961 108.168 46.2371 108.168 50.3528C108.168 54.7366 101.28 60.4276 90.0961 64.1473ZM85.4556 73.3764C86.5864 79.1086 86.7475 84.2915 85.9985 88.3435C85.3258 91.9843 83.9726 94.4114 82.2989 95.3838C78.7384 97.4525 71.1234 94.7636 62.9109 87.6706C61.94 86.8304 60.9926 85.9633 60.0698 85.0703C63.2538 81.5756 66.4356 77.513 69.5411 73.0008C75.0035 72.5144 80.164 71.7188 84.8438 70.633C85.0693 71.5425 85.2732 72.4572 85.4556 73.3764ZM38.5256 95.0263C35.0467 96.2591 32.2758 96.2946 30.6008 95.3253C27.0368 93.2623 25.5551 85.298 27.5761 74.615C27.8164 73.3526 28.0914 72.0972 28.401 70.8501C33.0292 71.8778 38.1522 72.6167 43.6274 73.0623C46.7541 77.4776 50.0277 81.5357 53.327 85.0893C52.6258 85.7702 51.9081 86.4337 51.1744 87.0792C46.7903 90.9252 42.3973 93.6539 38.5256 95.0263ZM22.2276 64.1203C16.718 62.2301 12.1679 59.7738 9.04919 57.0933C6.24649 54.6848 4.8319 52.2931 4.8319 50.3528C4.8319 46.2234 10.9656 40.9563 21.1961 37.3766C22.4377 36.9424 23.7371 36.5327 25.0855 36.1482C26.4996 40.764 28.3543 45.5903 30.5924 50.4707C28.3251 55.4232 26.444 60.3266 25.0162 64.997C24.0796 64.7277 23.1498 64.4354 22.2276 64.1203ZM27.6909 26.7946C25.5674 15.903 26.9776 7.687 30.5267 5.62491C34.3066 3.42861 42.6652 6.56005 51.4754 14.4115C52.0499 14.9246 52.6151 15.4482 53.1707 15.9818C49.8878 19.5199 46.6442 23.548 43.5453 27.9371C38.2312 28.4314 33.1444 29.2252 28.4677 30.2888C28.1795 29.131 27.9205 27.966 27.6909 26.795V26.7946ZM76.43 38.8738C75.3254 36.9588 74.1797 35.0679 72.9939 33.2023C76.599 33.6599 80.0532 34.2673 83.2968 35.0097C82.3232 38.1425 81.1094 41.4175 79.6807 44.7753C78.6364 42.7866 77.5526 40.8191 76.43 38.8738ZM56.5542 19.4442C58.7805 21.8651 61.0103 24.5677 63.2035 27.5003C58.7545 27.2894 54.298 27.2885 49.849 27.4976C52.0443 24.5921 54.2931 21.893 56.5542 19.4442ZM36.5509 38.9071C35.4424 40.8366 34.3788 42.7919 33.3612 44.7713C31.9558 41.4254 30.7531 38.1354 29.7711 34.9583C32.9948 34.2345 36.4326 33.6427 40.0148 33.1935C38.8158 35.0704 37.6608 36.9753 36.5509 38.9066V38.9071ZM40.1176 67.8569C36.4168 67.4422 32.9273 66.881 29.7044 66.1766C30.7019 62.9429 31.9311 59.5828 33.3669 56.1652C34.3886 58.1461 35.4566 60.1025 36.5699 62.033C37.7148 64.0175 38.9003 65.9613 40.1176 67.8569ZM56.6875 81.6026C54.3995 79.1255 52.1176 76.3847 49.8891 73.4371C52.0527 73.5222 54.2582 73.5656 56.5 73.5656C58.803 73.5656 61.0796 73.5137 63.3204 73.4136C61.1202 76.4144 58.8988 79.1591 56.6875 81.6026ZM79.7262 55.9907C81.2365 59.4459 82.5094 62.7883 83.5202 65.9667C80.2443 66.7171 76.7072 67.3213 72.9803 67.77C74.1745 65.8699 75.331 63.9461 76.449 61.9998C77.5857 60.0214 78.6783 58.0179 79.7262 55.9907ZM72.2679 59.5793C70.5563 62.5634 68.7486 65.4908 66.8474 68.357C63.4037 68.6018 59.9523 68.7234 56.5 68.7216C52.9836 68.7216 49.5634 68.6117 46.2699 68.3973C44.3191 65.5378 42.4769 62.6052 40.747 59.6059H40.7475C39.0258 56.6224 37.4176 53.5744 35.9264 50.4685C37.4138 47.3618 39.0171 44.3124 40.7329 41.3266L40.7325 41.3271C42.4476 38.3406 44.2752 35.4206 46.2112 32.5733C49.5713 32.3181 53.0171 32.1853 56.4995 32.1853H56.5C59.9983 32.1853 63.4484 32.3195 66.8077 32.5764C68.7242 35.4194 70.5401 38.3294 72.252 41.3009C73.9735 44.2801 75.598 47.3146 77.123 50.3998C75.6137 53.5165 73.9943 56.5783 72.2679 59.5793ZM82.2252 5.4805C86.0086 7.67061 87.4801 16.5023 85.1029 28.0841C84.9511 28.823 84.7807 29.5756 84.5953 30.3389C79.9071 29.2527 74.8168 28.4452 69.4873 27.9433C66.3827 23.5059 63.1655 19.4717 59.936 15.9792C60.7824 15.1603 61.6489 14.3627 62.5348 13.5871C70.8767 6.30135 78.673 3.42462 82.2252 5.4805ZM56.5 40.2263C62.0723 40.2263 66.5897 44.7602 66.5897 50.3528C66.5897 55.9455 62.0723 60.4794 56.5 60.4794C50.9277 60.4794 46.4102 55.9455 46.4102 50.3528C46.4102 44.7602 50.9277 40.2263 56.5 40.2263Z"
              fill="#00D8FF"/>


    </g>

    <g id="js">

        <path d="M0.5 0.5H105.5V105.5H0.5V0.5Z" fill="#F5DE19"/>
        <path d="M71.0338 82.5312C71.9284 84.3485 73.3183 85.8759 75.0434 86.9375C76.7684 87.9991 78.7584 88.5515 80.7838 88.5313C84.8713 88.5313 87.485 86.4875 87.485 83.6562C87.485 80.2812 84.8 79.0738 80.3 77.105L77.8325 76.0475C70.7075 73.0138 65.9825 69.215 65.9825 61.1825C65.9825 53.7838 71.6075 48.1475 80.4313 48.1475C83.2877 47.9412 86.1416 48.5805 88.637 49.9856C91.1324 51.3907 93.159 53.4994 94.4638 56.0488L86.75 60.98C86.2476 59.716 85.3728 58.6345 84.2416 57.879C83.1105 57.1236 81.7764 56.7298 80.4163 56.75C79.8229 56.6906 79.2236 56.7555 78.6567 56.9404C78.0897 57.1254 77.5675 57.4265 77.1234 57.8244C76.6792 58.2224 76.3228 58.7085 76.0769 59.2518C75.831 59.7951 75.7009 60.3837 75.695 60.98C75.695 63.9388 77.5288 65.1388 81.7625 66.98L84.23 68.0375C92.615 71.6338 97.355 75.2975 97.355 83.5363C97.355 92.42 90.3763 97.2875 81.005 97.2875C77.3537 97.5201 73.713 96.6912 70.5223 94.9005C67.3317 93.1099 64.7274 90.4342 63.0238 87.1963L71.0338 82.5312ZM36.1775 83.3863C37.7263 86.135 39.1363 88.46 42.5263 88.46C45.7663 88.46 47.8138 87.1925 47.8138 82.2612V48.71H57.68V82.3925C57.68 92.6075 51.68 97.2575 42.9463 97.2575C39.8591 97.4263 36.7931 96.6569 34.1513 95.0506C31.5096 93.4442 29.4157 91.0761 28.145 88.2575L36.1775 83.3863Z"
              fill="black"/>

    </g>

    <g id="html">

        <path d="M9.13255 95.0038L0.706299 0.5H93.2938L84.8563 94.9888L46.9438 105.5L9.13255 95.0038Z" fill="#E44F26"/>
        <path d="M47 97.4675L77.6375 88.9738L84.845 8.22876H47V97.4675Z" fill="#F1662A"/>
        <path d="M47 43.2762H31.6625L30.605 31.4074H47V19.8162H17.9375L18.215 22.9287L21.0613 54.8674H47V43.2762ZM47 73.3774L46.9475 73.3924L34.04 69.9087L33.215 60.6649H21.5787L23.2025 78.8599L46.9475 85.4524L47 85.4374V73.3774Z"
              fill="#EBEBEB"/>
        <path d="M46.9587 43.2762V54.8674H61.2312L59.8887 69.9012L46.9587 73.3887V85.4487L70.7225 78.8599L70.895 76.9024L73.6175 46.3887L73.9025 43.2762H46.9587ZM46.9587 19.8162V31.4074H74.9562L75.1887 28.8049L75.7175 22.9287L75.995 19.8162H46.9587Z"
              fill="white"/>
    </g>

    <g id="css">

        <path d="M9.13246 94.1537L0.709961 0.4375H93.29L84.8562 94.1388L46.9437 104.562L9.13246 94.1537Z"
              fill="#1572B6"/>
        <path d="M47 96.5969L77.6375 88.1739L84.845 8.10181H47V96.5969Z" fill="#33A9DC"/>
        <path d="M47 42.054H62.3375L63.395 30.2842H47V18.7896H76.0625L75.785 21.8724L72.9387 53.5487H47V42.054Z"
              fill="white"/>
        <path d="M47.0711 71.9045L47.0186 71.9193L34.1112 68.4609L33.2862 59.2942H21.6499L23.2737 77.3413L47.0149 83.8788L47.0711 83.864V71.9045Z"
              fill="#EBEBEB"/>
        <path d="M61.3513 53.0615L59.9563 68.4534L47.03 71.9119V83.8714L70.79 77.3412L70.9663 75.4001L72.98 53.0615H61.3513Z"
              fill="white"/>
        <path d="M47.0411 18.7896V30.2842H19.0436L18.8111 27.6997L18.2824 21.8724L18.0049 18.7896H47.0411ZM46.9999 42.054V53.5487H34.2536L34.0211 50.9642L33.4961 45.1369L33.2186 42.054H46.9999Z"
              fill="#EBEBEB"/>


    </g>

    <g id="gittech">

        <path fill-rule="evenodd" clip-rule="evenodd"
              d="M44 0C19.69 0 0 19.69 0 44C0 63.47 12.595 79.915 30.085 85.745C32.285 86.13 33.11 84.81 33.11 83.655C33.11 82.61 33.055 79.145 33.055 75.46C22 77.495 19.14 72.765 18.26 70.29C17.765 69.025 15.62 65.12 13.75 64.075C12.21 63.25 10.01 61.215 13.695 61.16C17.16 61.105 19.635 64.35 20.46 65.67C24.42 72.325 30.745 70.455 33.275 69.3C33.66 66.44 34.815 64.515 36.08 63.415C26.29 62.315 16.06 58.52 16.06 41.69C16.06 36.905 17.765 32.945 20.57 29.865C20.13 28.765 18.59 24.255 21.01 18.205C21.01 18.205 24.695 17.05 33.11 22.715C36.63 21.725 40.37 21.23 44.11 21.23C47.85 21.23 51.59 21.725 55.11 22.715C63.525 16.995 67.21 18.205 67.21 18.205C69.63 24.255 68.09 28.765 67.65 29.865C70.455 32.945 72.16 36.85 72.16 41.69C72.16 58.575 61.875 62.315 52.085 63.415C53.68 64.79 55.055 67.43 55.055 71.555C55.055 77.44 55 82.17 55 83.655C55 84.81 55.825 86.185 58.025 85.745C66.7597 82.796 74.3497 77.1822 79.7268 69.6937C85.1039 62.2052 87.9974 53.219 88 44C88 19.69 68.31 0 44 0Z"
              fill="#FFFEFE"/>
    </g>

    <g id="abstraction">

        <g opacity="0.5">
            <path d="M590.154 436.461L513.308 359.615" stroke="#505685"/>
            <path d="M513.308 359.615L590.154 282.769" stroke="#505685"/>
            <path d="M513.308 359.615L410.846 257.154" stroke="#505685"/>
            <path d="M590.154 282.769L487.693 180.307" stroke="url(#paint0_linear_4533_754)"/>
            <path d="M410.846 257.154L487.693 180.307" stroke="#505685"/>
            <path d="M513.308 359.615L590.154 282.769" stroke="url(#paint1_linear_4533_754)"/>
            <path d="M308.385 1L385.231 77.8462" stroke="#505685"/>
            <path d="M231.539 77.8459L308.385 154.692" stroke="#505685"/>
            <path d="M385.231 77.8459L308.385 154.692" stroke="#505685"/>
            <path d="M308.385 1L231.538 77.8461" stroke="#505685"/>
            <path d="M385.231 77.8459L487.693 180.307" stroke="url(#paint2_linear_4533_754)"/>
            <path d="M308.385 154.692L410.846 257.154" stroke="#505685"/>
            <path d="M385.231 77.8459L308.385 154.692" stroke="#505685"/>
            <path d="M410.846 257.154L487.693 334" stroke="#505685"/>
            <path d="M334 334L410.846 410.846" stroke="#505685"/>
            <path d="M487.693 334L410.846 410.846" stroke="#505685"/>
            <path d="M487.692 334L590.154 436.461" stroke="#505685"/>
            <path d="M410.846 410.846L513.308 513.307" stroke="#505685"/>
            <path d="M590.154 436.461L513.308 513.307" stroke="url(#paint3_linear_4533_754)"/>
            <path d="M487.692 334L410.846 410.846" stroke="#505685"/>
            <path d="M334 334L257.154 257.154" stroke="#505685"/>
            <path d="M410.847 257.154L334.001 180.308" stroke="#505685"/>
            <path d="M257.154 257.154L334 180.308" stroke="#505685"/>
            <path d="M257.154 257.154L154.693 154.692" stroke="#505685"/>
            <path d="M334 180.307L231.539 77.8458" stroke="#505685"/>
            <path d="M154.693 154.692L231.539 77.846" stroke="url(#paint4_linear_4533_754)"/>
            <path d="M257.154 257.154L334 180.308" stroke="#505685"/>
            <path d="M436.461 590.154L359.615 513.308" stroke="#505685"/>
            <path d="M513.308 513.308L436.461 436.462" stroke="#505685"/>
            <path d="M359.615 513.308L436.461 436.462" stroke="#505685"/>
            <path d="M436.461 590.154L513.307 513.308" stroke="#505685"/>
            <path d="M359.615 513.308L257.153 410.847" stroke="#505685"/>
            <path d="M436.461 436.462L334 334" stroke="#505685"/>
            <path d="M257.154 410.847L334 334.001" stroke="#505685"/>
            <path d="M359.615 513.308L436.461 436.462" stroke="url(#paint5_linear_4533_754)"/>
            <path d="M154.692 154.692L231.538 231.539" stroke="#505685"/>
            <path d="M77.8459 231.539L154.692 308.385" stroke="#505685"/>
            <path d="M231.538 231.539L154.692 308.385" stroke="#505685"/>
            <path d="M154.692 154.692L77.846 231.539" stroke="#505685"/>
            <path d="M231.539 231.539L334 334" stroke="url(#paint6_linear_4533_754)"/>
            <path d="M154.692 308.385L257.154 410.846" stroke="#505685"/>
            <path d="M231.539 231.539L154.692 308.385" stroke="#505685"/>
            <path d="M257.154 410.847L334 487.693" stroke="#505685"/>
            <path d="M180.307 487.693L257.154 564.539" stroke="#505685"/>
            <path d="M334 487.693L257.154 564.539" stroke="#505685"/>
            <path d="M334 487.693L436.462 590.154" stroke="url(#paint7_linear_4533_754)"/>
            <path d="M257.154 564.539L359.615 667" stroke="url(#paint8_linear_4533_754)"/>
            <path d="M436.462 590.154L359.616 667" stroke="#505685"/>
            <path d="M334 487.693L257.154 564.539" stroke="#505685"/>
            <path d="M180.307 487.693L103.461 410.846" stroke="#505685"/>
            <path d="M257.154 410.847L180.308 334.001" stroke="#505685"/>
            <path d="M103.461 410.847L180.308 334.001" stroke="#505685"/>
            <path d="M103.461 410.847L0.999875 308.385" stroke="#505685"/>
            <path d="M180.307 334L77.8458 231.539" stroke="#505685"/>
            <path d="M1 308.385L77.8461 231.539" stroke="#505685"/>
            <path d="M103.461 410.847L180.308 334.001" stroke="url(#paint9_linear_4533_754)"/>
        </g>
        <defs>
            <linearGradient id="paint0_linear_4533_754" x1="588.84" y1="282.769" x2="466.281" y2="232.198"
                            gradientUnits="userSpaceOnUse">
                <stop stop-color="#FF6B00"/>
                <stop offset="1" stop-color="#505685"/>
            </linearGradient>
            <linearGradient id="paint1_linear_4533_754" x1="533.093" y1="359.615" x2="567.856" y2="306.949"
                            gradientUnits="userSpaceOnUse">
                <stop stop-color="#505685"/>
                <stop offset="1" stop-color="#FF6B00"/>
            </linearGradient>
            <linearGradient id="paint2_linear_4533_754" x1="385.231" y1="104.226" x2="455.453" y2="150.576"
                            gradientUnits="userSpaceOnUse">
                <stop stop-color="#505685"/>
                <stop offset="0.421875" stop-color="#FF6B00"/>
                <stop offset="1" stop-color="#505685"/>
            </linearGradient>
            <linearGradient id="paint3_linear_4533_754" x1="570.369" y1="436.461" x2="535.606" y2="489.127"
                            gradientUnits="userSpaceOnUse">
                <stop stop-color="#505685"/>
                <stop offset="0.0001" stop-color="#505685"/>
                <stop offset="0.317708" stop-color="#FF6B00"/>
                <stop offset="1" stop-color="#505685"/>
            </linearGradient>
            <linearGradient id="paint4_linear_4533_754" x1="154.693" y1="154.692" x2="192.267" y2="61.9373"
                            gradientUnits="userSpaceOnUse">
                <stop stop-color="#505685"/>
                <stop offset="0.494792" stop-color="#FF6B00"/>
                <stop offset="1" stop-color="#505685"/>
            </linearGradient>
            <linearGradient id="paint5_linear_4533_754" x1="379.4" y1="513.308" x2="414.163" y2="460.642"
                            gradientUnits="userSpaceOnUse">
                <stop stop-color="#FF6B00"/>
                <stop offset="0.234375" stop-color="#505685"/>
            </linearGradient>
            <linearGradient id="paint6_linear_4533_754" x1="257.482" y1="257.811" x2="347.977" y2="294.701"
                            gradientUnits="userSpaceOnUse">
                <stop stop-color="#505685"/>
                <stop offset="0.75" stop-color="#FF6B00"/>
                <stop offset="1" stop-color="#505685"/>
            </linearGradient>
            <linearGradient id="paint7_linear_4533_754" x1="334" y1="514.073" x2="404.222" y2="560.423"
                            gradientUnits="userSpaceOnUse">
                <stop stop-color="#505685"/>
                <stop offset="0.0001" stop-color="#505685"/>
                <stop offset="0.317708" stop-color="#FF6B00"/>
                <stop offset="1" stop-color="#505685"/>
            </linearGradient>
            <linearGradient id="paint8_linear_4533_754" x1="257.154" y1="590.919" x2="327.376" y2="637.269"
                            gradientUnits="userSpaceOnUse">
                <stop stop-color="#505685"/>
                <stop offset="0.0001" stop-color="#505685"/>
                <stop offset="0.317708" stop-color="#FF6B00"/>
                <stop offset="1" stop-color="#505685"/>
            </linearGradient>
            <linearGradient id="paint9_linear_4533_754" x1="103.461" y1="410.847" x2="141.036" y2="318.092"
                            gradientUnits="userSpaceOnUse">
                <stop stop-color="#505685"/>
                <stop offset="0.0582928" stop-color="#FF6B00"/>
                <stop offset="1" stop-color="#505685"/>
            </linearGradient>
        </defs>
    </g>

    <g id="ellipse">

        viewBox="0 0 25 25" fill="none" xmlns="http://www.w3.org/2000/svg">
        <circle cx="12.5" cy="12.5" r="12.5" fill="white"/>
    </g>

</svg>
